<svg width="420" height="110" version="1.1" viewBox="0 0 420 110" xmlns="http://www.w3.org/2000/svg" xmlns:xlink="http://www.w3.org/1999/xlink"><defs><linearGradient id="linearGradient1477"><stop stop-opacity=".202" offset="0"/><stop stop-opacity="0" offset="1"/></linearGradient><linearGradient id="linearGradient1164"><stop stop-color="#f1d23b" offset="0"/><stop stop-color="#e4720c" offset="1"/></linearGradient><linearGradient id="linearGradient1013" x1="10" x2="245" y1="1023" y2="1113" gradientUnits="userSpaceOnUse"><stop stop-color="#892b6d" offset="0"/><stop stop-color="#4c183d" offset="1"/></linearGradient><linearGradient id="linearGradient1021" x1="10" x2="245" y1="1023" y2="1113" gradientUnits="userSpaceOnUse" xlink:href="#linearGradient1164"/><linearGradient id="linearGradient1029" x1="10" x2="245" y1="1023" y2="1113" gradientUnits="userSpaceOnUse"><stop stop-color="#e4720c" offset="0"/><stop stop-color="#d71919" offset="1"/></linearGradient><linearGradient id="linearGradient1047" x1="10" x2="245" y1="1023" y2="1113" gradientTransform="translate(-10)" gradientUnits="userSpaceOnUse" xlink:href="#linearGradient1164"/><linearGradient id="linearGradient1013-4" x1="10" x2="245" y1="1023" y2="1113" gradientTransform="translate(0 -1013)" gradientUnits="userSpaceOnUse"><stop stop-color="#d71919" offset="0"/><stop stop-color="#4c183d" offset="1"/></linearGradient><linearGradient id="linearGradient1479" x1="30" x2="35" y1="1043" y2="1038" gradientUnits="userSpaceOnUse" xlink:href="#linearGradient1477"/><linearGradient id="linearGradient1479-7" x1="30" x2="35" y1="1043" y2="1038" gradientTransform="matrix(-1 0 0 1 110 -1013)" gradientUnits="userSpaceOnUse" xlink:href="#linearGradient1477"/></defs><g transform="translate(0 -1013)"><path d="m10 1023v90l90-90z" fill="url(#linearGradient1013)"/><path d="m75 1113v-90h90z" fill="url(#linearGradient1047)"/><path d="m10 1113v-90l90 90z" fill="url(#linearGradient1021)"/><path d="m10 1113v-90l45 45z" fill="url(#linearGradient1029)"/><path d="m191 1053q5.74 0 9 2.74 3.26 2.74 3.26 7.54t-3.26 7.54q-3.26 2.7-9 2.7h-8.06v9.47h-3.17v-30zm-.0857 17.7q4.46 0 6.81-1.93 2.36-1.97 2.36-5.53 0-3.64-2.36-5.57-2.36-1.97-6.81-1.97h-7.97v15z" fill="#98929a"/><path d="m228 1075h-16.7l-3.6 8.01h-3.3l13.7-30h3.13l13.7 30h-3.34zm-1.16-2.57-7.2-16.1-7.2 16.1z" fill="#98929a"/><path d="m260 1083-6.86-9.64q-1.16.129-2.4.129h-8.06v9.51h-3.17v-30h11.2q5.74 0 9 2.74 3.26 2.74 3.26 7.54 0 3.51-1.8 5.96-1.76 2.4-5.06 3.47l7.33 10.3zm-9.34-12.2q4.46 0 6.81-1.97 2.36-1.97 2.36-5.53 0-3.64-2.36-5.57-2.36-1.97-6.81-1.97h-7.97v15z" fill="#98929a"/><path d="m289 1075h-16.7l-3.6 8.01h-3.3l13.7-30h3.13l13.7 30h-3.34zm-1.16-2.57-7.2-16.1-7.2 16.1z" fill="#98929a"/><path d="m301 1053h3.17v27.3h16.8v2.74h-20z" fill="#98929a"/><path d="m327 1053h3.17v27.3h16.8v2.74h-20z" fill="#98929a"/><path d="m371 1075h-16.7l-3.6 8.01h-3.3l13.7-30h3.13l13.7 30h-3.34zm-1.16-2.57-7.2-16.1-7.2 16.1z" fill="#98929a"/><path d="m400 1083-9.69-13.2-9.64 13.2h-3.64l11.4-15.4-10.7-14.6h3.64l9.04 12.3 9-12.3h3.43l-10.6 14.5 11.4 15.5z" fill="#98929a"/><path transform="translate(0 1013)" d="m75 10v25l25-25z" fill="url(#linearGradient1013-4)"/><path transform="translate(0 1013)" d="m75 75v25l12.5-12.5z" fill="#e2630e"/><path d="m55 1068 5-5-40-40h-10z" fill="url(#linearGradient1479)"/><path transform="translate(0 1013)" d="m90 10-15 15v10l25-25z" fill="url(#linearGradient1479-7)"/></g></svg>
